<?xml version="1.0" encoding="UTF-8" standalone="no"?>
<!DOCTYPE svg PUBLIC "-//W3C//DTD SVG 20010904//EN"
"http://www.w3.org/TR/2001/REC-SVG-20010904/DTD/svg10.dtd">
<!--
	(c) 2004 Ryan Stutsman
	
    This work is free; you can redistribute it and/or modify
    it under the terms of the GNU General Public License as published by
    the Free Software Foundation; either version 2 of the License, or
    (at your option) any later version.

    This work is distributed in the hope that it will be useful,
    but WITHOUT ANY WARRANTY; without even the implied warranty of
    MERCHANTABILITY or FITNESS FOR A PARTICULAR PURPOSE.  See the
    GNU General Public License for more details.

    You should have received a copy of the GNU General Public License
    along with this program; if not, write to the Free Software
    Foundation, Inc., 59 Temple Place, Suite 330, Boston, MA  02111-1307  USA
-->
<!-- Created with Sodipodi ("http://www.sodipodi.com/") -->
<svg
   version="1.0"
   x="0"
   y="0"
   width="80.0000000"
   height="80.0000000"
   id="svg559"
   xmlns="http://www.w3.org/2000/svg"
   xmlns:xlink="http://www.w3.org/1999/xlink">
  <defs
     id="defs561">
    <linearGradient
       id="linearGradient579">
      <stop
         style="stop-color:#ffffff;stop-opacity:1.0000;"
         offset="0"
         id="stop580" />
      <stop
         style="stop-color:#656566;stop-opacity:1.0000;"
         offset="1"
         id="stop581" />
    </linearGradient>
    <linearGradient
       id="linearGradient564">
      <stop
         style="stop-color:#f07f7d;stop-opacity:1.0000;"
         offset="0"
         id="stop565" />
      <stop
         style="stop-color:#620000;stop-opacity:1.0000;"
         offset="1"
         id="stop566" />
    </linearGradient>
    <linearGradient
       x1="0.302321"
       y1="0.617179"
       x2="0.887597"
       y2="0.601562"
       id="linearGradient567"
       xlink:href="#linearGradient579" />
    <radialGradient
       cx="0.276923"
       cy="0.507812"
       r="0.703749"
       fx="0.276923"
       fy="0.507812"
       id="radialGradient568"
       xlink:href="#linearGradient564" />
    <radialGradient
       cx="0.228950"
       cy="0.203126"
       r="1.809091"
       fx="0.228950"
       fy="0.203126"
       id="radialGradient570"
       xlink:href="#linearGradient564" />
    <radialGradient
       cx="4.327909e-2"
       cy="0.496591"
       r="2.403461"
       fx="4.327909e-2"
       fy="0.496591"
       id="radialGradient572"
       xlink:href="#linearGradient564" />
    <radialGradient
       cx="0.231891"
       cy="-2.546936"
       r="6.407288"
       fx="0.231891"
       fy="-2.546936"
       id="radialGradient574"
       xlink:href="#linearGradient564" />
    <radialGradient
       cx="0.678370"
       cy="0.328118"
       r="0.743097"
       fx="0.678370"
       fy="0.328118"
       id="radialGradient582"
       xlink:href="#linearGradient579" />
  </defs>
  <g
     id="g1016">
    <path
       d="M 360.4717 51.12511 C 344.2768 52.36496 333.8589 55.91560 318.8194 68.70979 C 303.8897 85.65758 287.6176 103.5574 281.8405 130.4836 C 272.2701 189.4130 312.7988 212.1533 328.4660 220.5191 C 343.4720 225.8783 357.9002 233.5485 373.4838 236.5968 C 386.8819 238.6815 400.2801 237.3000 413.6782 234.1853 C 447.8076 217.5444 459.9840 176.0620 467.5387 146.1336 C 471.2729 127.5532 470.9877 105.7130 461.9114 94.30870 C 450.8651 79.21104 428.8422 63.53577 401.0422 55.94849 C 385.4349 49.14116 372.0604 49.39194 360.4717 51.12511 z "
       transform="matrix(0.386209,0.000000,0.000000,0.386209,-105.0170,-14.62676)"
       style="fill:url(#radialGradient568);stroke:#960000;stroke-width:2.5000000;"
       id="path572" />
    <ellipse
       cx="138.6445"
       cy="103.5658"
       rx="65.14622"
       ry="46.77166"
       transform="matrix(0.435723,0.000000,0.000000,0.446636,-21.93232,-18.82671)"
       style="fill:url(#radialGradient570);fill-rule:evenodd;"
       id="path569" />
    <ellipse
       cx="367.4916"
       cy="182.0753"
       rx="60.13496"
       ry="28.39706"
       transform="matrix(0.379942,0.156575,-0.151138,0.393608,-81.12441,-67.58463)"
       style="fill:url(#radialGradient572);fill-rule:evenodd;"
       id="path571" />
    <ellipse
       cx="481.0799"
       cy="188.7570"
       rx="60.13498"
       ry="21.71539"
       transform="matrix(0.128262,-0.308075,0.208654,0.189377,-34.50172,164.2841)"
       style="fill:url(#radialGradient574);fill-rule:evenodd;"
       id="path573" />
    <ellipse
       cx="374.1732"
       cy="110.2474"
       rx="16.70416"
       ry="13.36330"
       transform="matrix(0.463455,0.000000,0.000000,0.434484,-117.1827,-26.24901)"
       style="fill:url(#radialGradient582);fill-rule:evenodd;"
       id="path575" />
    <ellipse
       cx="374.1732"
       cy="110.2474"
       rx="16.70416"
       ry="13.36330"
       transform="matrix(0.463455,0.000000,0.000000,0.434484,-152.7707,-14.93248)"
       style="fill:url(#radialGradient582);fill-rule:evenodd;"
       id="ellipse588" />
    <ellipse
       cx="374.1732"
       cy="110.2474"
       rx="16.70416"
       ry="13.36330"
       transform="matrix(0.463455,0.000000,0.000000,0.434484,-134.9890,-20.40632)"
       style="fill:url(#radialGradient582);fill-rule:evenodd;"
       id="ellipse602" />
  </g>
</svg>
